<svg xmlns="http://www.w3.org/2000/svg" width="1900" height="440" viewBox="0 0 1900 440" role="img" aria-labelledby="title desc">
  <title id="title">子改动三重构前</title><desc id="desc">Graph 与 MTP 维护二维 state page table 和 speculative state slot。</desc>
  <defs><marker id="a" markerWidth="10" markerHeight="10" refX="9" refY="3" orient="auto"><path d="M0 0L0 6L9 3z" fill="#64748B"/></marker><style>.h{font:700 25px sans-serif;fill:#0F172A}.p{font:15px sans-serif;fill:#475569}.b{rx:12;ry:12;stroke-width:2}.gray{fill:#F4F5F7;stroke:#6B7280}.red{fill:#FDECEC;stroke:#D14343;stroke-dasharray:7 5}.orange{fill:#FFF4D6;stroke:#D97706}.purple{fill:#EEE8FF;stroke:#7C3AED}.t{font:700 16px sans-serif;fill:#0F172A;text-anchor:middle}.s{font:14px sans-serif;fill:#334155;text-anchor:middle}.e{fill:none;stroke:#64748B;stroke-width:2.5;marker-end:url(#a)}</style></defs>
  <text x="35" y="45" class="h">子改动 3 重构前：Graph/MTP 绑定 paged state</text><text x="35" y="75" class="p">Graph 捕获二维 page metadata；MTP 预留 speculative state slot 并处理回滚。</text>
  <rect x="35" y="120" width="280" height="95" class="b gray"/><text x="175" y="157" class="t">Graph capture/replay</text><text x="175" y="186" class="s">固定 tensor 地址</text>
  <rect x="365" y="105" width="330" height="125" class="b red"/><text x="530" y="143" class="t">State Graph Buffers</text><text x="530" y="173" class="s">page_table[B,max_pages]</text><text x="530" y="200" class="s">state_loc[T]</text>
  <rect x="35" y="285" width="280" height="95" class="b gray"/><text x="175" y="322" class="t">Target verify</text><text x="175" y="351" class="s">draft token interval</text>
  <rect x="365" y="270" width="330" height="125" class="b red"/><text x="530" y="308" class="t">Speculative state slots</text><text x="530" y="338" class="s">allocator reserve</text><text x="530" y="365" class="s">rejected rollback/clear</text>
  <rect x="780" y="170" width="330" height="125" class="b orange"/><text x="945" y="208" class="t">Graph Compressor</text><text x="945" y="238" class="s">cache_mode=1</text><text x="945" y="265" class="s">paged state metadata</text>
  <rect x="1195" y="160" width="330" height="145" class="b red"/><text x="1360" y="198" class="t">剩余 paged metadata</text><text x="1360" y="228" class="s">两张 state request table</text><text x="1360" y="255" class="s">write/free hooks</text><text x="1360" y="282" class="s">accepted/rejected rollback</text>
  <rect x="1610" y="180" width="250" height="105" class="b purple"/><text x="1735" y="218" class="t">结果</text><text x="1735" y="248" class="s">Graph/MTP paged state</text>
  <path d="M315 167H365M695 167H740V215H780M315 332H365M695 332H740V250H780M1110 232H1195M1525 232H1610" class="e"/>
</svg>
